PathFileType	4	(X/Y/Z)	C:\Github\FootballMatch-and-Movement-Analysis\output\test Exam_2026-03-06_135002_tvc2_Sports2D\test Exam_2026-03-06_135002_tvc2_Sports2D_px_person00.trc
DataRate	CameraRate	NumFrames	NumMarkers	Units	OrigDataRate	OrigDataStartFrame	OrigNumFrames
30.0	30.0	7	22	m	30.0	451	516
Frame#	Time	Hip			RHip			RKnee			RAnkle			RBigToe			RSmallToe			RHeel			LHip			LKnee			LAnkle			LBigToe			LSmallToe			LHeel			Neck			Head			Nose			RShoulder			RElbow			RWrist			LShoulder			LElbow			LWrist			
		X1	Y1	Z1	X2	Y2	Z2	X3	Y3	Z3	X4	Y4	Z4	X5	Y5	Z5	X6	Y6	Z6	X7	Y7	Z7	X8	Y8	Z8	X9	Y9	Z9	X10	Y10	Z10	X11	Y11	Z11	X12	Y12	Z12	X13	Y13	Z13	X14	Y14	Z14	X15	Y15	Z15	X16	Y16	Z16	X17	Y17	Z17	X18	Y18	Z18	X19	Y19	Z19	X20	Y20	Z20	X21	Y21	Z21	X22	Y22	Z22
451	15.06252427184466	303.0275169956222	720.9189166923683	0.0	261.0152347716758	727.6955465387215	0.0	282.7166191517378	877.6611252603284	0.0	307.4413444943285	1012.7532671252422	0.0	301.9589853393038	1064.4892487607947	0.0	285.70633430574503	1061.3042365370143	0.0	319.6195049408971	1030.1389234287528	0.0	344.9316367708378	714.101322424941	0.0	353.96309670154864	830.7873517081229	0.0	362.272350702607	1004.4728643659197	0.0	365.8510627991809	1053.177103047388	0.0	386.6158450236493	1051.867439075536	0.0	359.9208265578402	1032.0415419761869	0.0	326.737927919357	516.7241075877888	0.0	341.00691378119416	409.31495108754615	0.0	334.84347346430513	472.2854539490933	0.0	244.06195810447673	539.3486893662955	0.0	148.65178448459739	593.6012199429504	0.0	211.03014920539502	677.993815137322	0.0	397.18691774671873	556.6000976099834	0.0	449.98654908718237	615.7791652044513	0.0	400.371058108952	669.5021829628661	0.0
452	15.095922330097087	304.2367278343761	722.9336681254629	0.0	262.0545637168451	729.6988411388405	0.0	281.9529691506306	877.9591168803449	0.0	307.6332709021948	1012.7052680241302	0.0	302.60361808899864	1064.6027398874699	0.0	286.5456781718161	1060.6918262930396	0.0	320.60005197263695	1030.1717139282114	0.0	345.858449776026	716.1272016488433	0.0	356.04421167623275	830.7882861215121	0.0	364.43975838942396	1003.2075831707449	0.0	368.5216258862679	1050.7560826138688	0.0	389.5672214304012	1049.2660052017284	0.0	361.4300332090201	1031.1301702353276	0.0	325.1930316740893	522.4450068431366	0.0	337.40744377142335	412.9036949062193	0.0	330.1398830563688	477.9067060504654	0.0	242.83901134229262	543.738384278471	0.0	148.1354165210703	598.5450359051189	0.0	211.92100188140176	682.1715983940123	0.0	396.37654122652987	560.8802183566954	0.0	452.6490258076467	617.932015632524	0.0	401.3442830325718	673.4114096221565	0.0
453	15.129320388349514	304.91399598660917	725.4068566634667	0.0	262.4812744769493	732.2566238197647	0.0	281.93563920476805	879.6211298548629	0.0	308.8056897149907	1012.9822862675521	0.0	303.4834302679833	1065.3595185286786	0.0	287.47987945147497	1061.6468857638251	0.0	322.7471461100919	1029.4717684488137	0.0	346.9766304457129	717.688628210061	0.0	357.2136235869309	830.1942907115144	0.0	366.9455122506331	1001.5187116277225	0.0	370.52161882172607	1047.3644698069436	0.0	391.5065441653433	1045.268203407571	0.0	363.75992751595896	1029.538620419499	0.0	323.5699851968919	528.2553670431328	0.0	333.58238850340433	417.89387840232587	0.0	325.97828146593474	483.5750422696234	0.0	241.53157414720965	549.169186649036	0.0	147.60259351220287	604.332743894626	0.0	212.48119155344943	685.7174011733985	0.0	394.58080349712696	564.3018957802819	0.0	454.89252508735444	619.2521394224418	0.0	401.917664503711	676.5921357661578	0.0
454	15.162718446601941	305.25584361937297	727.4832625730577	0.0	262.77915015490436	734.503351495626	0.0	282.5149045674531	881.4729013558444	0.0	310.59016194814154	1013.0848012204713	0.0	304.04459578434137	1066.7667212911165	0.0	288.15751500984356	1063.636051888032	0.0	325.3287196386444	1029.0338428495816	0.0	348.06982703446056	718.7889925811412	0.0	357.4952343480673	829.0617045914742	0.0	369.4557559477743	1000.3577511833591	0.0	371.64407583021335	1044.115591654717	0.0	392.27527903178293	1042.5357820835552	0.0	366.47883673283064	1028.2167873349686	0.0	321.74883423613096	533.6969710076972	0.0	329.78964808648556	423.2361523076167	0.0	322.38718571094313	488.46114312234545	0.0	239.6884207495718	554.4322996861277	0.0	147.00811474827483	610.1884584224919	0.0	213.06036448146904	689.1436272147744	0.0	392.48566805734555	566.9483940805136	0.0	456.7090673051496	620.106376141955	0.0	402.05176670688695	679.1484794963496	0.0
455	15.19611650485437	305.83192768353706	728.8661983145116	0.0	263.43911849944493	735.6338329304613	0.0	282.9057451629317	882.3529985902791	0.0	311.6254370282793	1012.9337321539886	0.0	304.2300458644962	1067.7879281569574	0.0	288.5334335354886	1065.0917797272161	0.0	325.7884595269477	1029.507119329682	0.0	349.140171284075	719.5822233312338	0.0	357.4399188231819	828.0457495263171	0.0	371.03966554240696	999.9846751826944	0.0	371.4920625968876	1042.5652846432895	0.0	392.27970005119477	1043.0401946479367	0.0	368.51281874849406	1027.4910004837873	0.0	319.803103587102	538.2330146787168	0.0	326.18516553309206	427.165469234822	0.0	319.0688150038506	492.348814786672	0.0	237.77044077393987	558.2473947023434	0.0	146.33146093045525	615.0325255785473	0.0	214.37183496567985	692.6470155156429	0.0	391.0874209748415	569.2454673767678	0.0	458.51342038761766	621.1777283683562	0.0	401.83633545945753	682.1808239875443	0.0
456	15.229514563106797	306.54726207604045	729.9765375761917	0.0	264.0901620352003	736.4387490685363	0.0	282.5436851847208	883.0485188981243	0.0	311.51665042542766	1012.703342450495	0.0	304.00575411616217	1067.6494109031626	0.0	288.69813313983695	1065.2440108418762	0.0	324.53116413948493	1029.803523282036	0.0	350.0445972122375	720.2887920956313	0.0	357.2961177275461	827.4747919798981	0.0	371.5307963460667	999.9463099189028	0.0	370.4170478523913	1042.273197513701	0.0	391.8697702440544	1044.0969580642866	0.0	369.61592817891847	1026.6234423498488	0.0	317.8330290234741	541.7464528466139	0.0	322.5611745486284	430.2756621024414	0.0	316.32368882289904	496.14887730824046	0.0	236.5694528776097	561.1124888330978	0.0	145.90670456244624	618.3827391494178	0.0	215.82897854626202	695.2738532607724	0.0	389.7768216451027	571.2359859773659	0.0	460.1482120368031	622.6516529289329	0.0	401.86796633105587	684.8133191235173	0.0
457	15.262912621359224	307.07323475938284	730.9587888069527	0.0	264.4589760531496	737.7033873420263	0.0	282.0060447953694	884.4351067305741	0.0	311.1467118372601	1012.765765336354	0.0	303.4478151214661	1066.8559424080254	0.0	288.7024475203668	1064.5910660968766	0.0	324.2250639683164	1029.326257994273	0.0	350.7581493240202	721.118922982785	0.0	357.0526963895784	827.8348603784881	0.0	371.507856966202	1000.5370817266131	0.0	368.3645422840585	1042.4274843217145	0.0	390.6811061808836	1043.5312364540653	0.0	370.34081202718266	1026.0785914953917	0.0	315.8056310548439	544.9210795421274	0.0	318.91964100859525	433.9195192669668	0.0	314.474537216441	500.76588332502797	0.0	235.9821811148148	564.3327242433753	0.0	145.9749028764852	620.8962394729261	0.0	216.58528910631208	696.7767160647797	0.0	387.83284833435977	573.057314062676	0.0	460.97655668680073	624.176375846607	0.0	402.54773670921486	685.7211692621931	0.0
